<?xml version="1.0" standalone="no"?>
<!DOCTYPE svg PUBLIC "-//W3C//DTD SVG 20010904//EN"
 "http://www.w3.org/TR/2001/REC-SVG-20010904/DTD/svg10.dtd">
<svg version="1.0" xmlns="http://www.w3.org/2000/svg"
 width="512.000000pt" height="448.000000pt" viewBox="0 0 512.000000 448.000000"
 preserveAspectRatio="xMidYMid meet">

<g transform="translate(0.000000,448.000000) scale(0.100000,-0.100000)"
fill="#000000" stroke="none">
<path d="M3560 4466 c-204 -36 -387 -114 -545 -232 -49 -37 -178 -156 -285
-265 l-196 -198 -184 176 c-340 323 -520 432 -813 494 -137 30 -418 32 -550 6
-129 -26 -258 -71 -367 -128 -334 -175 -550 -475 -610 -852 -18 -108 -7 -384
19 -502 108 -491 401 -946 982 -1525 193 -193 583 -555 598 -555 8 0 649 771
658 792 3 9 -311 423 -322 423 -2 0 -27 -11 -56 -25 -74 -34 -142 -40 -220
-21 -144 37 -209 100 -513 491 -314 403 -306 391 -306 434 0 80 81 142 142
110 14 -8 117 -126 228 -264 111 -137 211 -258 222 -267 47 -41 128 -2 128 61
0 29 -96 156 -367 484 -62 76 -73 94 -73 127 0 30 6 44 31 64 36 31 87 34 117
9 11 -10 109 -128 218 -263 108 -135 205 -250 213 -257 28 -22 78 -15 110 15
28 25 35 43 32 85 0 9 -48 76 -106 147 -367 454 -344 414 -276 481 30 30 46
39 72 39 19 0 39 -4 45 -8 20 -14 569 -677 606 -732 63 -96 82 -153 81 -255 0
-101 -16 -156 -62 -214 l-30 -38 156 -177 c127 -145 158 -176 168 -164 6 7 67
81 135 163 68 83 130 158 138 167 13 15 12 26 -4 90 -53 209 9 456 170 672
243 328 610 495 869 396 118 -45 235 -186 272 -325 72 -278 -100 -679 -389
-911 -192 -153 -400 -208 -567 -148 l-48 18 -23 -29 c-223 -281 -307 -392
-305 -400 2 -5 154 -181 338 -391 l334 -381 48 39 c79 67 908 895 1012 1012
473 534 635 853 635 1253 0 600 -449 1123 -1090 1269 -92 21 -375 27 -470 10z"/>
<path d="M2215 984 c-162 -207 -297 -379 -298 -383 -1 -4 137 -141 306 -305
l308 -297 187 180 c103 99 238 231 301 294 l114 115 -303 386 c-166 212 -306
386 -310 386 -5 0 -142 -169 -305 -376z"/>
</g>
</svg>
